<svg width="511" height="512" viewBox="0 0 511 512" fill="none" xmlns="http://www.w3.org/2000/svg">
<path fill-rule="evenodd" clip-rule="evenodd" d="M256 512C389.208 512 498.652 410.26 510.867 280.246C507.561 286.447 503.329 292.399 498.169 298.104C487.621 309.452 474.438 319.076 458.621 326.974C446.656 332.949 434.034 337.605 420.753 340.944C407.573 343.978 394.344 345.644 381.064 345.942C367.887 345.935 355.267 344.509 343.205 341.665L343.385 287.99C353.926 290.834 364.974 292.411 376.53 292.721C388.086 293.031 399.237 292.276 409.983 290.457C420.627 288.435 429.6 285.601 436.9 281.956C445.214 277.804 450.944 273.042 454.089 267.671C457.336 261.996 457.44 256.117 454.402 250.034C451.77 244.761 447.615 241.515 441.939 240.296C436.162 238.874 429.37 238.718 421.564 239.829C413.758 240.94 405.293 242.507 396.169 244.53C387.146 246.249 377.87 247.714 368.341 248.926C358.913 249.833 349.74 249.727 340.82 248.607C331.799 247.285 323.437 243.986 315.736 238.711C308.238 233.335 301.754 225.172 296.286 214.221C289.704 201.04 287.429 187.861 289.463 174.684C291.599 161.203 297.738 148.636 307.881 136.984C318.125 125.028 331.764 114.797 348.799 106.29C364.413 98.4928 380.838 93.0779 398.072 90.0456C415.306 87.0133 431.272 86.2611 445.97 87.7891L446.854 142.072C437.022 141.155 427.037 141.201 416.9 142.209C406.864 142.914 397.436 144.328 388.616 146.452C379.897 148.273 372.598 150.651 366.717 153.588C360.025 156.929 355.309 160.931 352.57 165.593C349.729 170.051 349.626 174.917 352.258 180.19C354.891 185.462 358.995 188.86 364.57 190.383C370.246 191.603 376.987 191.657 384.792 190.546C392.598 189.435 401.114 187.969 410.34 186.149C419.565 184.329 428.892 182.965 438.319 182.058C447.747 181.15 457.022 181.459 466.144 182.984C475.166 184.307 483.577 187.707 491.38 193.185C497.764 197.667 503.401 204.048 508.29 212.33C487.565 91.7481 382.497 0 256 0C114.615 0 0 114.615 0 256C0 268.608 0.91148 281.004 2.67214 293.124L175.788 206.675L193.712 242.569L147.696 432.003L262.069 374.889L284.094 418.996L146.747 487.583C179.882 503.242 216.918 512 256 512ZM84.9765 446.494L123.289 287.997L14.8553 342.145C29.3087 382.6 53.6534 418.354 84.9765 446.494ZM288.446 76.84L105.633 168.131L128.114 213.15L191.383 181.555L275.383 349.768L331.049 321.97L247.049 153.758L310.927 121.859L288.446 76.84Z" fill="url(#paint0_radial_4485_120)"/>
<defs>
<radialGradient id="paint0_radial_4485_120" cx="0" cy="0" r="1" gradientUnits="userSpaceOnUse" gradientTransform="translate(256 256) rotate(90) scale(256)">
<stop offset="0.485" stop-color="#E08F51"/>
<stop offset="1" stop-color="#BB5A55"/>
</radialGradient>
</defs>
</svg>
